<svg xmlns="http://www.w3.org/2000/svg" xmlns:xlink="http://www.w3.org/1999/xlink" width="974" zoomAndPan="magnify" viewBox="0 0 730.5 154.499995" height="206" preserveAspectRatio="xMidYMid meet" version="1.0"><defs><clipPath id="97aaac04aa"><path d="M 12.585938 23 L 136 23 L 136 132.371094 L 12.585938 132.371094 Z M 12.585938 23" clip-rule="nonzero"></path></clipPath><clipPath id="88207ee1b3"><path d="M 143 45 L 220 45 L 220 132.371094 L 143 132.371094 Z M 143 45" clip-rule="nonzero"></path></clipPath><clipPath id="b93b9da84e"><path d="M 650 37 L 717.535156 37 L 717.535156 125 L 650 125 Z M 650 37" clip-rule="nonzero"></path></clipPath></defs><g clip-path="url(#97aaac04aa)"><path fill="#0d0a0b" d="M 76.675781 41.550781 C 83.1875 32.757812 90.90625 26.429688 101.914062 25.074219 C 112.921875 23.71875 121.136719 28 126.839844 37.21875 C 131.90625 45.417969 134.460938 54.589844 135.175781 64 C 136.566406 82.453125 135.828125 100.929688 133.164062 119.25 C 131.679688 129.480469 124.738281 133.644531 112.527344 132.539062 C 103.054688 131.683594 98.65625 126.601562 98.570312 116.261719 C 98.464844 103.285156 102.042969 90.542969 101.082031 77.515625 C 100.84375 74.386719 100.496094 71.269531 100.105469 68.164062 C 99.855469 66.164062 99.273438 63.738281 97.132812 63.558594 C 94.757812 63.371094 94.292969 65.964844 93.984375 67.820312 C 93.117188 73.03125 92.4375 78.289062 91.722656 83.523438 C 91.226562 87.210938 91.023438 90.957031 90.273438 94.597656 C 89.109375 100.332031 85.851562 104.035156 79.597656 104.757812 C 73.621094 105.449219 68.601562 104.09375 65.082031 98.988281 C 60.042969 91.707031 59.699219 83.117188 58.511719 74.789062 C 57.867188 70.316406 57.453125 65.808594 55.394531 61.691406 C 54.71875 60.335938 54.230469 58.445312 52.328125 58.492188 C 50.199219 58.539062 49.535156 60.429688 48.988281 62.109375 C 46.433594 69.925781 48.488281 77.683594 49.476562 85.425781 C 50.675781 94.765625 52.566406 104.023438 53.433594 113.382812 C 54.445312 124.304688 50.507812 130.351562 42.414062 132.015625 C 30.144531 134.539062 21.207031 130.636719 18.402344 119.832031 C 12.765625 98.214844 10.042969 76.230469 15.726562 54.113281 C 18.328125 43.964844 23.382812 35.210938 32.535156 29.285156 C 47.085938 19.863281 62.351562 22.492188 72.679688 36.292969 C 73.953125 37.980469 75.234375 39.671875 76.675781 41.550781 Z M 76.675781 41.550781" fill-opacity="1" fill-rule="nonzero"></path></g><path fill="#0d0a0b" d="M 448.632812 88.902344 C 448.800781 82.023438 448.371094 72.222656 447.921875 62.40625 C 447.648438 56.566406 447.027344 49.9375 453.375 46.714844 C 460.628906 43.050781 468.484375 43.324219 475.511719 47.390625 C 478.019531 48.84375 479.316406 48.761719 481.644531 47.726562 C 496.648438 41.039062 513.457031 49.035156 517.546875 64.820312 C 521.28125 79.242188 521.269531 93.992188 520.722656 108.710938 C 520.4375 116.226562 515.015625 120.476562 507.632812 120.035156 C 500.429688 119.605469 496.21875 115.230469 496.136719 107.769531 C 496.054688 99.714844 496.304688 91.660156 495.019531 83.667969 C 494.925781 83.082031 494.996094 82.476562 494.851562 81.90625 C 493.84375 77.980469 493.617188 72.851562 488.207031 72.863281 C 483.15625 72.863281 481.679688 77.492188 480.945312 81.632812 C 479.496094 89.78125 479.792969 98.074219 479.519531 106.304688 C 479.042969 120.511719 470.148438 126.78125 456.40625 122.722656 C 451.175781 121.175781 448.480469 118.011719 448.574219 112.457031 C 448.691406 105.582031 448.597656 98.703125 448.597656 88.890625 Z M 448.632812 88.902344" fill-opacity="1" fill-rule="nonzero"></path><path fill="#0d0a0b" d="M 261.351562 96.929688 C 260.960938 102.808594 261.484375 108.734375 259.902344 114.503906 C 257.964844 121.558594 251.199219 125.175781 241.84375 124.257812 C 233.59375 123.449219 230.695312 120.796875 230.242188 112.398438 C 229.289062 94.5625 228.53125 76.707031 227.960938 58.847656 C 227.6875 50.1875 230.40625 47.023438 238.882812 45.632812 C 244.78125 44.667969 250.75 44.574219 255.957031 48.308594 C 257 49.058594 257.714844 49.332031 259.082031 48.867188 C 274.820312 43.40625 284.984375 47 292.605469 60.847656 C 296.339844 67.617188 297.71875 74.851562 295.386719 82.441406 C 293.734375 87.828125 289.144531 87.722656 284.757812 87.78125 C 280.695312 87.84375 277.1875 86.996094 276.605469 82.070312 C 276.558594 81.679688 276.460938 81.296875 276.34375 80.929688 C 275.105469 77.132812 275.070312 72.113281 269.164062 72.519531 C 263.289062 72.921875 262.019531 77.730469 261.484375 82.203125 C 260.914062 87.042969 261.351562 92.003906 261.351562 96.90625 Z M 261.351562 96.929688" fill-opacity="1" fill-rule="nonzero"></path><path fill="#0d0a0b" d="M 305.503906 62.621094 C 305.503906 53.984375 305.527344 45.347656 305.503906 36.707031 C 305.492188 31.757812 306.191406 27.011719 311.507812 25.003906 C 317.75 22.648438 324.238281 21.550781 330.265625 25.550781 C 333.15625 27.464844 333.390625 30.878906 333.285156 34.089844 C 332.820312 46.644531 332.609375 59.21875 331.679688 71.734375 C 331.121094 79.265625 331.8125 86.652344 332.703125 94.015625 C 333.476562 100.429688 336.375 105.6875 343.890625 106.519531 C 346.503906 106.804688 348.050781 108.421875 349.023438 110.816406 C 353.363281 121.523438 347.71875 129.683594 336.339844 129.054688 C 319.222656 128.101562 307.65625 116.679688 305.097656 98.488281 C 303.421875 86.535156 304.042969 74.589844 305.515625 62.632812 Z M 305.503906 62.621094" fill-opacity="1" fill-rule="nonzero"></path><g clip-path="url(#88207ee1b3)"><path fill="#0d0a0b" d="M 219.378906 110.855469 C 219.394531 109.710938 219.410156 108.554688 219.460938 107.371094 L 219.472656 107.371094 C 219.042969 94.929688 217.117188 82.28125 213.148438 70.125 C 205.898438 47.863281 185.554688 39.632812 164.382812 49.898438 C 159.5 52.265625 155.183594 55.277344 152.710938 60.320312 C 150.167969 65.507812 151.023438 70.230469 154.980469 72.929688 C 160.210938 76.5 165.039062 76.046875 169.246094 71.621094 C 174.3125 66.292969 179.230469 66.554688 183.691406 72.492188 C 183.828125 72.671875 183.972656 72.855469 184.117188 73.042969 C 185.214844 74.453125 186.441406 76.027344 185.769531 77.75 C 185.0625 79.558594 183.515625 79.253906 182.042969 78.96875 C 181.511719 78.863281 180.988281 78.761719 180.515625 78.761719 C 169.484375 78.808594 158.773438 79.6875 149.929688 87.421875 C 143.746094 92.824219 141.855469 99.390625 144.542969 107.015625 C 149.324219 120.554688 162.421875 128.371094 176.722656 126.40625 C 177.933594 126.242188 179.1875 125.925781 180.445312 125.609375 C 185.257812 124.394531 190.148438 123.160156 192.9375 130.308594 C 192.976562 130.40625 193.105469 130.460938 193.234375 130.519531 C 193.300781 130.550781 193.371094 130.582031 193.425781 130.621094 C 202.59375 136.117188 215.15625 131.308594 218.25 121.222656 C 219.277344 117.855469 219.328125 114.441406 219.378906 110.855469 Z M 173.074219 107.386719 C 173.074219 107.386719 175.457031 107.421875 176.984375 107.410156 C 177.546875 107.402344 178.421875 107.386719 178.421875 107.386719 C 178.421875 107.386719 179.960938 107.402344 180.207031 107.386719 C 182.167969 107.277344 182.753906 107.09375 185.816406 106.089844 C 188.183594 105.304688 188.601562 103.660156 188.660156 101.53125 C 188.730469 99.269531 188.027344 97.6875 185.664062 97.175781 C 180.351562 96.035156 175.070312 95.953125 169.898438 97.796875 C 167.488281 98.664062 165.75 100.4375 166.144531 103.125 C 166.535156 105.742188 168.621094 106.988281 171.160156 107.382812 C 171.898438 107.5 173.074219 107.386719 173.074219 107.386719 Z M 173.074219 107.386719" fill-opacity="1" fill-rule="evenodd"></path></g><path fill="#0d0a0b" d="M 355.425781 88.414062 C 358.921875 110.933594 374.21875 123.566406 398.269531 123.828125 L 398.28125 123.804688 C 408.707031 123.804688 418.835938 122.558594 427.429688 115.964844 C 431.910156 112.515625 432.839844 107.449219 430.1875 102.867188 C 426.90625 97.179688 422.652344 95.597656 416.886719 97.75 C 416.230469 97.996094 415.574219 98.246094 414.917969 98.496094 C 411.519531 99.792969 408.109375 101.089844 404.59375 101.9375 C 399.078125 103.273438 393.964844 102.261719 390.234375 97.476562 C 390.070312 97.273438 389.898438 97.066406 389.71875 96.855469 C 388.707031 95.644531 387.585938 94.300781 388.140625 92.875 C 388.730469 91.371094 390.191406 91.582031 391.566406 91.78125 C 392.023438 91.847656 392.46875 91.910156 392.871094 91.910156 C 404.832031 91.921875 416.539062 90.554688 427.511719 85.507812 C 432.066406 83.402344 436.097656 80.382812 437.191406 75.0625 C 439.53125 63.703125 433.46875 50.042969 423.339844 44.011719 C 411.464844 36.945312 398.875 37.183594 386.167969 41.15625 C 365.410156 47.664062 352.261719 68.058594 355.425781 88.414062 Z M 393.085938 75.800781 C 393.085938 75.800781 396.460938 75.457031 398.234375 75.457031 L 398.234375 75.46875 C 398.234375 75.46875 406.886719 75.492188 411.097656 74.195312 C 411.246094 74.148438 411.402344 74.101562 411.554688 74.058594 C 413.699219 73.410156 415.871094 72.753906 416.183594 70.066406 C 416.527344 67.035156 414.972656 64.867188 412.453125 63.273438 C 405.53125 58.882812 393.917969 61.417969 389.246094 68.402344 C 388.046875 70.199219 386.644531 72.351562 387.582031 74.363281 C 388.546875 76.421875 393.085938 75.800781 393.085938 75.800781 Z M 393.085938 75.800781" fill-opacity="1" fill-rule="evenodd"></path><path fill="#0d0a0b" d="M 528.988281 88.414062 C 532.484375 110.933594 547.78125 123.566406 571.832031 123.828125 L 571.84375 123.804688 C 582.269531 123.804688 592.398438 122.558594 600.992188 115.964844 C 605.472656 112.515625 606.402344 107.449219 603.75 102.867188 C 600.46875 97.179688 596.214844 95.597656 590.449219 97.75 C 589.792969 97.996094 589.136719 98.246094 588.480469 98.496094 C 585.082031 99.792969 581.671875 101.089844 578.15625 101.9375 C 572.640625 103.273438 567.527344 102.261719 563.796875 97.476562 C 563.632812 97.273438 563.460938 97.066406 563.28125 96.855469 C 562.269531 95.644531 561.148438 94.300781 561.703125 92.875 C 562.292969 91.371094 563.753906 91.582031 565.128906 91.78125 C 565.585938 91.847656 566.03125 91.910156 566.433594 91.910156 C 578.394531 91.921875 590.101562 90.554688 601.074219 85.507812 C 605.628906 83.402344 609.660156 80.382812 610.753906 75.0625 C 613.09375 63.703125 607.03125 50.042969 596.902344 44.011719 C 585.027344 36.945312 572.4375 37.183594 559.730469 41.15625 C 538.972656 47.664062 525.824219 68.058594 528.988281 88.414062 Z M 566.648438 75.800781 C 566.648438 75.800781 570.023438 75.457031 571.796875 75.457031 L 571.796875 75.46875 C 571.796875 75.46875 580.449219 75.492188 584.660156 74.195312 C 584.808594 74.148438 584.964844 74.101562 585.117188 74.058594 C 587.261719 73.410156 589.433594 72.753906 589.746094 70.066406 C 590.089844 67.035156 588.535156 64.867188 586.015625 63.273438 C 579.09375 58.882812 567.480469 61.417969 562.808594 68.402344 C 561.609375 70.199219 560.207031 72.351562 561.144531 74.363281 C 562.109375 76.421875 566.648438 75.800781 566.648438 75.800781 Z M 566.648438 75.800781" fill-opacity="1" fill-rule="evenodd"></path><g clip-path="url(#b93b9da84e)"><path fill="#0d0a0b" d="M 685.535156 124.328125 C 674.433594 124.398438 665.445312 122.066406 657.632812 115.953125 C 655.589844 114.347656 653.855469 112.480469 652.582031 110.230469 C 649.300781 104.449219 649.753906 97.941406 653.664062 94.417969 C 658.195312 90.351562 663.933594 90.542969 669.902344 94.777344 C 672.625 96.703125 675.429688 98.59375 678.414062 100.058594 C 681.828125 101.722656 685.167969 101.1875 687.058594 97.597656 C 688.996094 93.90625 686.617188 91.589844 683.609375 90.03125 C 678.011719 87.125 672.316406 84.378906 666.621094 81.667969 C 658.253906 77.679688 652.960938 71.507812 653.234375 61.929688 C 653.523438 51.746094 658.515625 44.285156 668.085938 40.453125 C 682.347656 34.734375 695.902344 36.503906 708.574219 45.105469 C 711.59375 47.152344 713.648438 50.054688 715.300781 53.21875 C 717.097656 56.683594 718 60.289062 715.46875 63.796875 C 712.757812 67.542969 708.871094 68.554688 704.472656 68.03125 C 700.632812 67.566406 697.445312 65.546875 694.214844 63.640625 C 691.835938 62.25 689.507812 60.75 687.035156 59.539062 C 684.039062 58.074219 681.066406 58.242188 679.328125 61.417969 C 677.441406 64.878906 679.675781 66.996094 682.5625 68.425781 C 689.28125 71.730469 696.246094 74.597656 702.761719 78.277344 C 710.488281 82.640625 716.050781 88.757812 715.992188 98.429688 C 715.910156 110.410156 708.359375 119.761719 695.949219 122.960938 C 692.109375 123.949219 688.199219 124.496094 685.546875 124.351562 Z M 685.535156 124.328125" fill-opacity="1" fill-rule="nonzero"></path></g><path fill="#0d0a0b" d="M 645.796875 40.882812 C 645.617188 51.007812 640.683594 58.789062 633.359375 65.296875 C 631.210938 67.199219 628.464844 67.804688 625.574219 67.28125 C 620.511719 66.367188 619.285156 63.976562 621.484375 59.417969 C 621.746094 58.882812 622.019531 58.359375 622.304688 57.847656 C 625.433594 52.296875 624.742188 47.480469 620.226562 43.40625 C 615.683594 39.3125 615.230469 33.125 619.15625 28.664062 C 622.746094 24.585938 631.148438 22.90625 637.414062 25.035156 C 643.324219 27.046875 645.34375 31.675781 645.773438 37.351562 C 645.855469 38.527344 645.785156 39.707031 645.785156 40.882812 Z M 645.796875 40.882812" fill-opacity="1" fill-rule="nonzero"></path></svg>